<?xml version="1.0" encoding="UTF-8"?>
<svg id="Capa_1" data-name="Capa 1" xmlns="http://www.w3.org/2000/svg" viewBox="0 0 472 120">
  <g>
    <path class="logo-navbar" d="m62.64,89.88V30.12h22.05v7.29h-13.95v18.36h12.06v7.2h-12.06v26.91h-8.1Z"/>
    <path class="logo-navbar" d="m99.18,89.88V30.12h21.6v7.29h-13.68v17.46h12.51v7.38h-12.51v20.34h14.4v7.29h-22.32Z"/>
    <path class="logo-navbar" d="m135.81,89.88V30.12h16.65c4.2,0,7.14,1.05,8.82,3.15,1.68,2.1,2.52,5.04,2.52,8.82v8.19c0,2.76-.54,4.95-1.62,6.57-1.08,1.62-2.58,2.67-4.5,3.15v.36c2.1.42,3.67,1.38,4.73,2.88,1.05,1.5,1.58,3.75,1.58,6.75v19.89h-7.92v-20.52c0-1.92-.36-3.31-1.08-4.19-.72-.87-2.04-1.3-3.96-1.3h-7.29v26.01h-7.92Zm20.16-46.89c0-1.86-.4-3.25-1.21-4.19-.81-.93-2.18-1.4-4.1-1.4h-6.93v19.71h7.02c1.62,0,2.89-.45,3.82-1.35.93-.9,1.4-2.49,1.4-4.77v-8.01Z"/>
    <path class="logo-navbar" d="m178.83,89.88V30.12h16.65c4.2,0,7.14,1.05,8.82,3.15,1.68,2.1,2.52,5.04,2.52,8.82v8.19c0,2.76-.54,4.95-1.62,6.57-1.08,1.62-2.58,2.67-4.5,3.15v.36c2.1.42,3.67,1.38,4.73,2.88,1.05,1.5,1.57,3.75,1.57,6.75v19.89h-7.92v-20.52c0-1.92-.36-3.31-1.08-4.19-.72-.87-2.04-1.3-3.96-1.3h-7.29v26.01h-7.92Zm20.16-46.89c0-1.86-.4-3.25-1.21-4.19-.81-.93-2.18-1.4-4.1-1.4h-6.93v19.71h7.02c1.62,0,2.89-.45,3.82-1.35.93-.9,1.4-2.49,1.4-4.77v-8.01Z"/>
    <path class="logo-navbar" d="m221.85,89.88V30.12h21.6v7.29h-13.68v17.46h12.51v7.38h-12.51v20.34h14.4v7.29h-22.32Z"/>
    <path class="logo-navbar" d="m293.49,89.88v-33.03c0-3.66.09-7.98.27-12.96h-.36l-10.08,45.99h-7.47l-10.08-45.99h-.36c.18,4.98.27,9.3.27,12.96v33.03h-7.2V30.12h12.24l8.82,43.83h.36l8.82-43.83h11.97v59.76h-7.2Z"/>
    <path class="logo-navbar" d="m337.86,89.88l-2.34-14.04h-10.98l-2.16,14.04h-7.83l10.17-59.76h10.89l10.17,59.76h-7.92Zm-12.24-20.97h8.82l-4.23-26.19h-.36l-4.23,26.19Z"/>
    <path class="logo-navbar" d="m378.72,47.76v-3.42c0-2.22-.5-3.97-1.49-5.27-.99-1.29-2.62-1.94-4.9-1.94-2.16,0-3.75.6-4.77,1.8-1.02,1.2-1.53,2.67-1.53,4.41v2.34c0,1.32.24,2.43.72,3.33.48.9,1.41,1.92,2.79,3.06,1.02.78,2.14,1.57,3.38,2.38,1.23.81,2.44,1.61,3.64,2.39,1.2.78,2.37,1.56,3.51,2.34,1.14.78,2.13,1.53,2.97,2.25,1.38,1.2,2.44,2.61,3.19,4.23.75,1.62,1.12,3.81,1.12,6.57v3.69c0,4.68-1.16,8.27-3.46,10.76-2.31,2.49-6.11,3.73-11.38,3.73s-9.06-1.27-11.34-3.83c-2.28-2.55-3.42-6.28-3.42-11.21v-3.42h7.65v3.51c0,2.46.54,4.32,1.62,5.58,1.08,1.26,2.85,1.89,5.31,1.89,2.1,0,3.72-.54,4.86-1.62,1.14-1.08,1.71-2.82,1.71-5.22v-2.7c0-.9-.06-1.69-.18-2.38-.12-.69-.33-1.32-.63-1.89-.3-.57-.71-1.11-1.21-1.62-.51-.51-1.12-1.06-1.85-1.66-2.1-1.74-4.23-3.27-6.39-4.59-2.16-1.32-4.17-2.88-6.03-4.68-1.5-1.56-2.64-3.18-3.42-4.86-.78-1.68-1.17-3.72-1.17-6.12v-2.61c0-3.96,1.12-7.18,3.38-9.67,2.25-2.49,5.86-3.73,10.84-3.73,2.7,0,4.95.39,6.75,1.17,1.8.78,3.24,1.86,4.32,3.24,1.08,1.38,1.84,3.03,2.29,4.95.45,1.92.67,3.99.67,6.21v2.61h-7.56Z"/>
  </g>
  <polygon class="logo-navbar" points="450 23 450 0 0 0 0 120 450 120 450 97 440 97 440 110 10 110 10 10 440 10 440 23 450 23"/>
  <polygon class="logo-navbar" points="472 55 450 55 450 33 440 33 440 55 418 55 418 65 440 65 440 87 450 87 450 65 472 65 472 55"/>
</svg>